<svg width="28" height="28" viewBox="0 0 28 28" fill="none" xmlns="http://www.w3.org/2000/svg">
<path d="M14 16.625C15.4497 16.625 16.625 15.4497 16.625 14C16.625 12.5503 15.4497 11.375 14 11.375C12.5503 11.375 11.375 12.5503 11.375 14C11.375 15.4497 12.5503 16.625 14 16.625Z" stroke="black" stroke-opacity="0.55" stroke-width="2" stroke-miterlimit="10"/>
<path d="M5.25 16.625C6.69975 16.625 7.875 15.4497 7.875 14C7.875 12.5503 6.69975 11.375 5.25 11.375C3.80025 11.375 2.625 12.5503 2.625 14C2.625 15.4497 3.80025 16.625 5.25 16.625Z" stroke="black" stroke-opacity="0.55" stroke-width="2" stroke-miterlimit="10"/>
<path d="M22.75 16.625C24.1997 16.625 25.375 15.4497 25.375 14C25.375 12.5503 24.1997 11.375 22.75 11.375C21.3003 11.375 20.125 12.5503 20.125 14C20.125 15.4497 21.3003 16.625 22.75 16.625Z" stroke="black" stroke-opacity="0.55" stroke-width="2" stroke-miterlimit="10"/>
</svg>
